<svg viewBox="0 0 900 700" xmlns="http://www.w3.org/2000/svg">
  <!-- Title -->
  <text x="450" y="30" font-family="Arial" font-size="24" text-anchor="middle" font-weight="bold">Programming Languages Family Tree</text>
  
  <!-- Machine Code - Root -->
  <rect x="425" y="50" width="100" height="40" rx="5" ry="5" fill="#e6e6e6" stroke="#333" />
  <text x="475" y="75" font-family="Arial" font-size="14" text-anchor="middle">Machine Code</text>
  
  <!-- Assembly -->
  <rect x="425" y="120" width="100" height="40" rx="5" ry="5" fill="#f9d5e5" stroke="#333" />
  <text x="475" y="145" font-family="Arial" font-size="14" text-anchor="middle">Assembly</text>
  <line x1="475" y1="90" x2="475" y2="120" stroke="#333" stroke-width="2" />
  
  <!-- Main branches -->
  <!-- Procedural -->
  <rect x="200" y="190" width="100" height="40" rx="5" ry="5" fill="#eeac99" stroke="#333" />
  <text x="250" y="215" font-family="Arial" font-size="14" text-anchor="middle">Procedural</text>
  <line x1="475" y1="160" x2="250" y2="190" stroke="#333" stroke-width="2" />
  
  <!-- Functional -->
  <rect x="425" y="190" width="100" height="40" rx="5" ry="5" fill="#b6e6bd" stroke="#333" />
  <text x="475" y="215" font-family="Arial" font-size="14" text-anchor="middle">Functional</text>
  <line x1="475" y1="160" x2="475" y2="190" stroke="#333" stroke-width="2" />
  
  <!-- Logic -->
  <rect x="650" y="190" width="100" height="40" rx="5" ry="5" fill="#c6def1" stroke="#333" />
  <text x="700" y="215" font-family="Arial" font-size="14" text-anchor="middle">Logic</text>
  <line x1="475" y1="160" x2="700" y2="190" stroke="#333" stroke-width="2" />
  
  <!-- Languages under Procedural -->
  <!-- FORTRAN -->
  <rect x="50" y="260" width="100" height="40" rx="5" ry="5" fill="#eeac99" stroke="#333" />
  <text x="100" y="285" font-family="Arial" font-size="14" text-anchor="middle">FORTRAN</text>
  <line x1="250" y1="230" x2="100" y2="260" stroke="#333" stroke-width="2" />
  
  <!-- COBOL -->
  <rect x="175" y="260" width="100" height="40" rx="5" ry="5" fill="#eeac99" stroke="#333" />
  <text x="225" y="285" font-family="Arial" font-size="14" text-anchor="middle">COBOL</text>
  <line x1="250" y1="230" x2="225" y2="260" stroke="#333" stroke-width="2" />
  
  <!-- BASIC -->
  <rect x="300" y="260" width="100" height="40" rx="5" ry="5" fill="#eeac99" stroke="#333" />
  <text x="350" y="285" font-family="Arial" font-size="14" text-anchor="middle">BASIC</text>
  <line x1="250" y1="230" x2="350" y2="260" stroke="#333" stroke-width="2" />
  
  <!-- C -->
  <rect x="50" y="330" width="100" height="40" rx="5" ry="5" fill="#eeac99" stroke="#333" />
  <text x="100" y="355" font-family="Arial" font-size="14" text-anchor="middle">C</text>
  <line x1="100" y1="300" x2="100" y2="330" stroke="#333" stroke-width="2" />
  
  <!-- Languages under C -->
  <!-- C++ -->
  <rect x="50" y="400" width="100" height="40" rx="5" ry="5" fill="#d6c6e1" stroke="#333" />
  <text x="100" y="425" font-family="Arial" font-size="14" text-anchor="middle">C++</text>
  <line x1="100" y1="370" x2="100" y2="400" stroke="#333" stroke-width="2" />
  
  <!-- Objective-C (leading to Swift) -->
  <rect x="175" y="400" width="100" height="40" rx="5" ry="5" fill="#d6c6e1" stroke="#333" />
  <text x="225" y="425" font-family="Arial" font-size="14" text-anchor="middle">Objective-C</text>
  <line x1="100" y1="370" x2="225" y2="400" stroke="#333" stroke-width="2" />
  
  <!-- Swift -->
  <rect x="175" y="470" width="100" height="40" rx="5" ry="5" fill="#d6c6e1" stroke="#333" />
  <text x="225" y="495" font-family="Arial" font-size="14" text-anchor="middle">Swift</text>
  <line x1="225" y1="440" x2="225" y2="470" stroke="#333" stroke-width="2" />
  
  <!-- Go -->
  <rect x="50" y="470" width="100" height="40" rx="5" ry="5" fill="#d6c6e1" stroke="#333" />
  <text x="100" y="495" font-family="Arial" font-size="14" text-anchor="middle">Go</text>
  <line x1="100" y1="440" x2="100" y2="470" stroke="#333" stroke-width="2" />
  
  <!-- Rust -->
  <rect x="300" y="470" width="100" height="40" rx="5" ry="5" fill="#d6c6e1" stroke="#333" />
  <text x="350" y="495" font-family="Arial" font-size="14" text-anchor="middle">Rust</text>
  <line x1="100" y1="440" x2="350" y2="470" stroke="#333" stroke-width="2" />
  
  <!-- Languages under Functional -->
  <!-- LISP -->
  <rect x="425" y="260" width="100" height="40" rx="5" ry="5" fill="#b6e6bd" stroke="#333" />
  <text x="475" y="285" font-family="Arial" font-size="14" text-anchor="middle">LISP</text>
  <line x1="475" y1="230" x2="475" y2="260" stroke="#333" stroke-width="2" />
  
  <!-- ML Family -->
  <rect x="550" y="260" width="100" height="40" rx="5" ry="5" fill="#b6e6bd" stroke="#333" />
  <text x="600" y="285" font-family="Arial" font-size="14" text-anchor="middle">ML Family</text>
  <line x1="475" y1="230" x2="600" y2="260" stroke="#333" stroke-width="2" />
  
  <!-- Scheme -->
  <rect x="375" y="330" width="100" height="40" rx="5" ry="5" fill="#b6e6bd" stroke="#333" />
  <text x="425" y="355" font-family="Arial" font-size="14" text-anchor="middle">Scheme</text>
  <line x1="475" y1="300" x2="425" y2="330" stroke="#333" stroke-width="2" />
  
  <!-- Common Lisp -->
  <rect x="500" y="330" width="100" height="40" rx="5" ry="5" fill="#b6e6bd" stroke="#333" />
  <text x="550" y="355" font-family="Arial" font-size="14" text-anchor="middle">Common Lisp</text>
  <line x1="475" y1="300" x2="550" y2="330" stroke="#333" stroke-width="2" />
  
  <!-- Haskell -->
  <rect x="550" y="330" width="100" height="40" rx="5" ry="5" fill="#b6e6bd" stroke="#333" />
  <text x="600" y="355" font-family="Arial" font-size="14" text-anchor="middle">Haskell</text>
  <line x1="600" y1="300" x2="600" y2="330" stroke="#333" stroke-width="2" />
  
  <!-- Languages under Logic -->
  <!-- PROLOG -->
  <rect x="650" y="260" width="100" height="40" rx="5" ry="5" fill="#c6def1" stroke="#333" />
  <text x="700" y="285" font-family="Arial" font-size="14" text-anchor="middle">PROLOG</text>
  <line x1="700" y1="230" x2="700" y2="260" stroke="#333" stroke-width="2" />
  
  <!-- SQL -->
  <rect x="775" y="260" width="100" height="40" rx="5" ry="5" fill="#c6def1" stroke="#333" />
  <text x="825" y="285" font-family="Arial" font-size="14" text-anchor="middle">SQL</text>
  <line x1="700" y1="230" x2="825" y2="260" stroke="#333" stroke-width="2" />
  
  <!-- Object-Oriented Branch (coming from both Procedural and Functional) -->
  <rect x="300" y="550" width="150" height="40" rx="5" ry="5" fill="#d6c6e1" stroke="#333" />
  <text x="375" y="575" font-family="Arial" font-size="14" text-anchor="middle">Object-Oriented</text>
  <line x1="250" y1="230" x2="375" y2="550" stroke="#333" stroke-width="2" stroke-dasharray="5,5" />
  <line x1="475" y1="230" x2="375" y2="550" stroke="#333" stroke-width="2" stroke-dasharray="5,5" />
  
  <!-- Smalltalk -->
  <rect x="175" y="620" width="100" height="40" rx="5" ry="5" fill="#d6c6e1" stroke="#333" />
  <text x="225" y="645" font-family="Arial" font-size="14" text-anchor="middle">Smalltalk</text>
  <line x1="375" y1="590" x2="225" y2="620" stroke="#333" stroke-width="2" />
  
  <!-- Java -->
  <rect x="300" y="620" width="100" height="40" rx="5" ry="5" fill="#d6c6e1" stroke="#333" />
  <text x="350" y="645" font-family="Arial" font-size="14" text-anchor="middle">Java</text>
  <line x1="375" y1="590" x2="350" y2="620" stroke="#333" stroke-width="2" />
  
  <!-- Ruby -->
  <rect x="425" y="620" width="100" height="40" rx="5" ry="5" fill="#d6c6e1" stroke="#333" />
  <text x="475" y="645" font-family="Arial" font-size="14" text-anchor="middle">Ruby</text>
  <line x1="375" y1="590" x2="475" y2="620" stroke="#333" stroke-width="2" />
  
  <!-- Scripting Languages Branch -->
  <rect x="600" y="550" width="150" height="40" rx="5" ry="5" fill="#ffe6aa" stroke="#333" />
  <text x="675" y="575" font-family="Arial" font-size="14" text-anchor="middle">Scripting Languages</text>
  <line x1="250" y1="230" x2="675" y2="550" stroke="#333" stroke-width="2" stroke-dasharray="5,5" />
  
  <!-- Perl -->
  <rect x="550" y="620" width="100" height="40" rx="5" ry="5" fill="#ffe6aa" stroke="#333" />
  <text x="600" y="645" font-family="Arial" font-size="14" text-anchor="middle">Perl</text>
  <line x1="675" y1="590" x2="600" y2="620" stroke="#333" stroke-width="2" />
  
  <!-- Python -->
  <rect x="675" y="620" width="100" height="40" rx="5" ry="5" fill="#ffe6aa" stroke="#333" />
  <text x="725" y="645" font-family="Arial" font-size="14" text-anchor="middle">Python</text>
  <line x1="675" y1="590" x2="725" y2="620" stroke="#333" stroke-width="2" />
  
  <!-- JavaScript -->
  <rect x="800" y="620" width="100" height="40" rx="5" ry="5" fill="#ffe6aa" stroke="#333" />
  <text x="850" y="645" font-family="Arial" font-size="14" text-anchor="middle">JavaScript</text>
  <line x1="675" y1="590" x2="850" y2="620" stroke="#333" stroke-width="2" />
  
  <!-- TypeScript -->
  <rect x="800" y="680" width="100" height="40" rx="5" ry="5" fill="#ffe6aa" stroke="#333" />
  <text x="850" y="705" font-family="Arial" font-size="14" text-anchor="middle">TypeScript</text>
  <line x1="850" y1="660" x2="850" y2="680" stroke="#333" stroke-width="2" />
  
  <!-- Legend -->
  <rect x="50" y="50" width="20" height="20" fill="#eeac99" stroke="#333" />
  <text x="75" y="65" font-family="Arial" font-size="12">Procedural</text>
  
  <rect x="50" y="75" width="20" height="20" fill="#b6e6bd" stroke="#333" />
  <text x="75" y="90" font-family="Arial" font-size="12">Functional</text>
  
  <rect x="50" y="100" width="20" height="20" fill="#c6def1" stroke="#333" />
  <text x="75" y="115" font-family="Arial" font-size="12">Logic/Declarative</text>
  
  <rect x="50" y="125" width="20" height="20" fill="#d6c6e1" stroke="#333" />
  <text x="75" y="140" font-family="Arial" font-size="12">Object-Oriented</text>
  
  <rect x="50" y="150" width="20" height="20" fill="#ffe6aa" stroke="#333" />
  <text x="75" y="165" font-family="Arial" font-size="12">Scripting</text>
  
  <rect x="50" y="175" width="20" height="20" fill="#f9d5e5" stroke="#333" />
  <text x="75" y="190" font-family="Arial" font-size="12">Low-Level</text>
  
  <line x1="150" y1="50" x2="170" y2="70" stroke="#333" stroke-width="2" stroke-dasharray="5,5" />
  <text x="175" y="65" font-family="Arial" font-size="12">Influence</text>
  
  <line x1="150" y1="75" x2="170" y2="75" stroke="#333" stroke-width="2" />
  <text x="175" y="80" font-family="Arial" font-size="12">Direct Descent</text>
</svg>
